<svg version="1.2" xmlns="http://www.w3.org/2000/svg" viewBox="0 0 2400 1440" width="2400" height="1440">
	<title>vector white-svg</title>
	<style>
		.s0 { fill: #000000 } 
	</style>
	<path fill-rule="evenodd" class="s0" d="m852 621l11 1 72 15 166 36 68 15 79 17 63 14 26 7 21 7 24 10 23 12 13 8 15 10 10 8 11 10 8 7 16 16 9 11 11 15 11 17 11 20 10 25 7 22 7 31 5 31 2 20v20l-6 38-6 27-5 16-10 25-8 16-12 19-10 13-9 10-6 7-8 7-9 8-17 12-19 11-17 8-24 7-17 3-9 1-42 1h-77l-118-1-23-3-29-7-21-8-24-11-21-12-15-10-19-14-14-12-15-14-1-3h-2l-7-8-11-12-12-16-7-10-12-18-11-22-9-24-6-20-6-27-2-12-2-23-1-30zm178 225l-1 5v121l2 17 5 13 9 14 9 11 10 10 8 7 17 13 10 6 13 6 13 4 16 3 54 4 147 10h14l13-2 15-5 11-6 15-12 11-16 8-16 2-5 3-14v-23l-5-21-6-16-8-14-8-10-13-14-14-10-19-9-23-5-125-19-50-8-47-7-45-7-28-4zm-178-661l8 1 28 10 20 7 24 9 39 14 26 10 20 7 65 24 35 13 20 7 27 10 17 7 1 2-20 8-41 15-34 12-26 10-16 6 12 12 11 9 11 11 8 7 13 12 8 7 12 11 8 7 14 13 8 7 10 9 12 11 6 5 2 5-7-1-33-11-20-6-33-10-49-15-7-2-1 9v178l-5 1-27-7-141-33-5-3v-340l-2-55zm485 111l3 1 1 66 16 8 19 10 18 11 14 10 13 10 15 13 17 16 11 12 9 11 15 20 10 16 10 17 8 16 11 27 8 26 5 26 3 21 1 11v45l-5 40-6 25-7 24-11 28-3 1-12-16-9-10-7-8-3-2v-2l-4-2-10-9-18-13-13-8-14-8-12-7-6-3-1-4 8-11 8-16 6-18 3-18v-18l-2-7-2-11-8-21-11-21-9-11-4-5-14-11-16-8-10-4-11-1-1 37-4-1-11-9-7-7-11-9-10-9-8-7-15-13-10-9-11-9-12-11-11-9-10-9-11-9-12-11-11-9-12-11-11-9-12-11-11-9-11-10-6-4v-2l23-10 59-24 76-31 42-17zm-292 61l2 1z"/>
</svg>